<?xml version="1.0" encoding="UTF-8" standalone="no"?>
<!-- Created with Inkscape (http://www.inkscape.org/) -->

<svg
   version="1.1"
   id="svg1"
   width="55.830002"
   height="25.69236"
   viewBox="0 0 55.830001 25.692359"
   xmlns="http://www.w3.org/2000/svg"
   xmlns:svg="http://www.w3.org/2000/svg">
  <defs
     id="defs1" />
  <g
     id="g1"
     transform="matrix(1.8544041,0,0,1.8544041,7.4045154e-7,-4.1838598e-6)">
    <g
       id="g17"
       transform="matrix(0.04752274,0,0,0.04752274,-2.7070217,17.01894)">
      <path
         id="path2"
         d="m 481.93679,-249.90999 c 0,59.73467 -48.47867,108.21333 -108.21334,108.21333 -59.73333,0 -108.21199,-48.47866 -108.21199,-108.21333 0,-59.73333 48.47866,-108.21199 108.21199,-108.21199 59.73467,0 108.21334,48.47866 108.21334,108.21199"
         style="fill:#ceb8a2;fill-opacity:1;fill-rule:nonzero;stroke:none;stroke-width:0.133333" />
      <path
         id="path3"
         d="m 373.72345,-94.564657 c -119.05066,0 -223.89826,-61.962663 -283.999853,-155.326663 H 56.962652 c 63.207878,109.47333 181.522138,183.309333 316.760798,183.309333 135.23867,0 253.55333,-73.836003 316.76133,-183.309333 h -32.76133 c -60.10133,93.364 -164.94933,155.326663 -284,155.326663"
         style="fill:#427187;fill-opacity:1;fill-rule:nonzero;stroke:none;stroke-width:0.133333" />
    </g>
  </g>
</svg>
